<svg width="35" height="19" viewBox="0 0 35 19" fill="none" xmlns="http://www.w3.org/2000/svg">
<path d="M2.0879 8.31983H14.7393V18.8986H12.6514V10.5549H2.0879V18.8986H0V0H2.0879V8.31983ZM26.0273 0C30.9486 0 35 4.25643 35 9.44937C35 12.0663 34.1107 14.2799 32.3537 16.1102C30.555 17.9618 28.5087 18.8986 26.0273 18.8986C21.0872 18.8986 17.0548 14.6423 17.0547 9.44937C17.0547 4.23501 21.0872 1.74236e-05 26.0273 0ZM26.0273 2.23316C22.1819 2.23318 19.1842 5.40484 19.1842 9.44937C19.1842 13.5127 22.1614 16.6629 26.0273 16.6629C29.8534 16.6629 32.8704 13.4933 32.8704 9.44937C32.8704 5.42627 29.8325 2.23316 26.0273 2.23316Z" fill="url(#paint0_linear_830_9059)"/>
<path d="M2.0879 8.31983H14.7393V18.8986H12.6514V10.5549H2.0879V18.8986H0V0H2.0879V8.31983ZM26.0273 0C30.9486 0 35 4.25643 35 9.44937C35 12.0663 34.1107 14.2799 32.3537 16.1102C30.555 17.9618 28.5087 18.8986 26.0273 18.8986C21.0872 18.8986 17.0548 14.6423 17.0547 9.44937C17.0547 4.23501 21.0872 1.74236e-05 26.0273 0ZM26.0273 2.23316C22.1819 2.23318 19.1842 5.40484 19.1842 9.44937C19.1842 13.5127 22.1614 16.6629 26.0273 16.6629C29.8534 16.6629 32.8704 13.4933 32.8704 9.44937C32.8704 5.42627 29.8325 2.23316 26.0273 2.23316Z" fill="white"/>
<defs>
<linearGradient id="paint0_linear_830_9059" x1="-1.37366e-05" y1="9.44884" x2="152.521" y2="9.44884" gradientUnits="userSpaceOnUse">
<stop stop-color="#8360C3"/>
<stop offset="1" stop-color="#2EBF91"/>
</linearGradient>
</defs>
</svg>
