<svg xmlns="http://www.w3.org/2000/svg" xmlns:xlink="http://www.w3.org/1999/xlink"><defs>
<linearGradient id="paint0_linear_830_9059" x1="-1.37366e-05" y1="9.44884" x2="152.521" y2="9.44884" gradientUnits="userSpaceOnUse">
<stop stop-color="#8360C3"/>
<stop offset="1" stop-color="#2EBF91"/>
</linearGradient>

<linearGradient id="paint0_linear_329_1101" x1="-3.44944e-05" y1="24.9993" x2="383" y2="24.9993" gradientUnits="userSpaceOnUse">
<stop stop-color="#8360C3"/>
<stop offset="1" stop-color="#2EBF91"/>
</linearGradient>
</defs><symbol id="btn-arrow" viewBox="0 0 8 12"><g fill="none">
<path d="M1 1L6.5 6L1 11" stroke="white" stroke-width="2" stroke-linecap="round"/>
</g></symbol><symbol id="btn-icon" viewBox="0 0 32 32"><g fill="none">
<circle cx="16" cy="16" r="16" fill="#2EBE91"/>
<path d="M13.5 11.5L19 16.5L13.5 21.5" stroke="white" stroke-width="2" stroke-linecap="round"/>
</g></symbol><symbol id="category-card-icon" viewBox="0 0 12 12"><g fill="none">
<path d="M11.0769 11.5385V0.923077H0.461538C0.206638 0.923077 2.10257e-08 0.716439 0 0.461538C2.75098e-08 0.206638 0.206638 2.10257e-08 0.461538 0H12V11.5385C12 11.7934 11.7934 12 11.5385 12C11.2836 12 11.0769 11.7934 11.0769 11.5385Z" fill="#4C3870"/>
</g></symbol><symbol id="dropdown-mobile" viewBox="0 0 9 6"><g fill="none">
<path d="M8.5 0.5L4.5 4.5L0.5 0.5" stroke="black" stroke-linecap="round"/>
</g></symbol><symbol id="logo-header" viewBox="0 0 35 19"><g fill="none">
<path d="M2.0879 8.31983H14.7393V18.8986H12.6514V10.5549H2.0879V18.8986H0V0H2.0879V8.31983ZM26.0273 0C30.9486 0 35 4.25643 35 9.44937C35 12.0663 34.1107 14.2799 32.3537 16.1102C30.555 17.9618 28.5087 18.8986 26.0273 18.8986C21.0872 18.8986 17.0548 14.6423 17.0547 9.44937C17.0547 4.23501 21.0872 1.74236e-05 26.0273 0ZM26.0273 2.23316C22.1819 2.23318 19.1842 5.40484 19.1842 9.44937C19.1842 13.5127 22.1614 16.6629 26.0273 16.6629C29.8534 16.6629 32.8704 13.4933 32.8704 9.44937C32.8704 5.42627 29.8325 2.23316 26.0273 2.23316Z" fill="url(#paint0_linear_830_9059)"/>
<path d="M2.0879 8.31983H14.7393V18.8986H12.6514V10.5549H2.0879V18.8986H0V0H2.0879V8.31983ZM26.0273 0C30.9486 0 35 4.25643 35 9.44937C35 12.0663 34.1107 14.2799 32.3537 16.1102C30.555 17.9618 28.5087 18.8986 26.0273 18.8986C21.0872 18.8986 17.0548 14.6423 17.0547 9.44937C17.0547 4.23501 21.0872 1.74236e-05 26.0273 0ZM26.0273 2.23316C22.1819 2.23318 19.1842 5.40484 19.1842 9.44937C19.1842 13.5127 22.1614 16.6629 26.0273 16.6629C29.8534 16.6629 32.8704 13.4933 32.8704 9.44937C32.8704 5.42627 29.8325 2.23316 26.0273 2.23316Z" fill="white"/>

</g></symbol><symbol id="logo" viewBox="0 0 383 50"><g fill="none">
<path d="M118.905 36.9175C122.306 37.0068 125.011 39.8886 125.011 43.4446C125.011 47.0063 122.306 49.9081 118.918 49.9978C118.865 49.9993 118.811 50 118.757 50C118.702 50 118.648 49.9993 118.594 49.9978C115.197 49.9081 112.488 47.0063 112.488 43.4446C112.488 39.8886 115.197 37.0067 118.581 36.9175C118.634 36.9161 118.688 36.9154 118.742 36.9154C118.797 36.9154 118.851 36.9161 118.905 36.9175ZM236.52 36.9154C238.782 36.9154 240.776 38.1361 241.864 39.9871L239.903 41.4453C239.024 40.0864 237.788 39.4257 236.54 39.4257C234.507 39.4257 232.902 41.2218 232.902 43.465C232.902 45.6882 234.507 47.4697 236.54 47.4697C238.358 47.4697 239.883 46.0949 240.225 44.1946H242.776C242.42 47.4349 239.755 50 236.54 50C233.077 50 230.318 47.0782 230.318 43.465C230.318 39.8475 233.077 36.9154 236.52 36.9154ZM157.256 39.5107H153.342V41.8672H157.887V44.2442H153.342V49.7775H150.825V37.1329H157.256V39.5107ZM185.991 39.5107H182.077V41.8672H186.627V44.2442H182.077V49.7775H179.56V37.1329H185.991V39.5107ZM274.815 39.5107H270.898V41.8672H275.447V44.2442H270.898V47.3997H275.884V49.7775H268.38V37.1329H274.815V39.5107ZM207.681 49.7764H205.164V37.1329H207.681V49.7764ZM5.24299 22.1221H37.0124V49.0829H31.7694V27.8183H5.24299V49.0829H0V0.918465H5.24299V22.1221ZM65.358 0.918465C77.7161 0.918465 87.8897 11.7663 87.8897 25.0008C87.8896 31.6701 85.6566 37.3118 81.2445 41.9765C76.7276 46.6954 71.5892 49.0829 65.358 49.0829C52.9528 49.0828 42.8268 38.2354 42.8267 25.0008C42.8267 11.7117 52.9528 0.91851 65.358 0.918465ZM118.742 39.4257C116.681 39.4257 115.071 41.2218 115.071 43.4446C115.071 45.6683 116.631 47.4144 118.66 47.4684C118.692 47.4692 118.724 47.4697 118.757 47.4697C118.789 47.4697 118.82 47.4692 118.852 47.4684C120.854 47.4143 122.427 45.6682 122.427 43.4446C122.427 41.2218 120.79 39.4257 118.742 39.4257ZM65.358 6.60984C55.7017 6.60988 48.1742 14.6931 48.1742 25.0008C48.1742 35.3566 55.6502 43.385 65.358 43.385C74.9658 43.385 82.5419 35.3071 82.5419 25.0008C82.5419 14.7477 74.9133 6.60984 65.358 6.60984ZM116.244 13.7401H143.796V0H147.552V31.4019H143.796V17.0112H116.244V31.4019H112.488V0H116.244V13.7401ZM185.127 3.26966H158.828V13.7401H183.873V17.0112H158.828V28.1318H185.127V31.4019H155.071V0H185.127V3.26966ZM227.705 31.4019H223.322L219.565 24.2067H195.77L192.013 31.4019H187.629L205.164 0H210.175L227.705 31.4019ZM236.473 28.1318H260.269V31.4019H232.716V0H236.473V28.1318ZM297.842 3.26966H282.81V31.4019H279.053V3.26966H264.025V0H297.842V3.26966ZM307.858 13.7401H335.41V0H339.167V31.4019H335.41V17.0112H307.858V31.4019H304.101V0H307.858V13.7401ZM350.438 0L364.216 15.3737L377.988 0H383L366.093 18.321V31.4019H362.335V18.321L345.427 0H350.438ZM197.651 20.9355H217.689L207.667 2.6157L197.651 20.9355Z" fill="url(#paint0_linear_329_1101)"/>
<path d="M118.905 36.9175C122.306 37.0068 125.011 39.8886 125.011 43.4446C125.011 47.0063 122.306 49.9081 118.918 49.9978C118.865 49.9993 118.811 50 118.757 50C118.702 50 118.648 49.9993 118.594 49.9978C115.197 49.9081 112.488 47.0063 112.488 43.4446C112.488 39.8886 115.197 37.0067 118.581 36.9175C118.634 36.9161 118.688 36.9154 118.742 36.9154C118.797 36.9154 118.851 36.9161 118.905 36.9175ZM236.52 36.9154C238.782 36.9154 240.776 38.1361 241.864 39.9871L239.903 41.4453C239.024 40.0864 237.788 39.4257 236.54 39.4257C234.507 39.4257 232.902 41.2218 232.902 43.465C232.902 45.6882 234.507 47.4697 236.54 47.4697C238.358 47.4697 239.883 46.0949 240.225 44.1946H242.776C242.42 47.4349 239.755 50 236.54 50C233.077 50 230.318 47.0782 230.318 43.465C230.318 39.8475 233.077 36.9154 236.52 36.9154ZM157.256 39.5107H153.342V41.8672H157.887V44.2442H153.342V49.7775H150.825V37.1329H157.256V39.5107ZM185.991 39.5107H182.077V41.8672H186.627V44.2442H182.077V49.7775H179.56V37.1329H185.991V39.5107ZM274.815 39.5107H270.898V41.8672H275.447V44.2442H270.898V47.3997H275.884V49.7775H268.38V37.1329H274.815V39.5107ZM207.681 49.7764H205.164V37.1329H207.681V49.7764ZM5.24299 22.1221H37.0124V49.0829H31.7694V27.8183H5.24299V49.0829H0V0.918465H5.24299V22.1221ZM65.358 0.918465C77.7161 0.918465 87.8897 11.7663 87.8897 25.0008C87.8896 31.6701 85.6566 37.3118 81.2445 41.9765C76.7276 46.6954 71.5892 49.0829 65.358 49.0829C52.9528 49.0828 42.8268 38.2354 42.8267 25.0008C42.8267 11.7117 52.9528 0.91851 65.358 0.918465ZM118.742 39.4257C116.681 39.4257 115.071 41.2218 115.071 43.4446C115.071 45.6683 116.631 47.4144 118.66 47.4684C118.692 47.4692 118.724 47.4697 118.757 47.4697C118.789 47.4697 118.82 47.4692 118.852 47.4684C120.854 47.4143 122.427 45.6682 122.427 43.4446C122.427 41.2218 120.79 39.4257 118.742 39.4257ZM65.358 6.60984C55.7017 6.60988 48.1742 14.6931 48.1742 25.0008C48.1742 35.3566 55.6502 43.385 65.358 43.385C74.9658 43.385 82.5419 35.3071 82.5419 25.0008C82.5419 14.7477 74.9133 6.60984 65.358 6.60984ZM116.244 13.7401H143.796V0H147.552V31.4019H143.796V17.0112H116.244V31.4019H112.488V0H116.244V13.7401ZM185.127 3.26966H158.828V13.7401H183.873V17.0112H158.828V28.1318H185.127V31.4019H155.071V0H185.127V3.26966ZM227.705 31.4019H223.322L219.565 24.2067H195.77L192.013 31.4019H187.629L205.164 0H210.175L227.705 31.4019ZM236.473 28.1318H260.269V31.4019H232.716V0H236.473V28.1318ZM297.842 3.26966H282.81V31.4019H279.053V3.26966H264.025V0H297.842V3.26966ZM307.858 13.7401H335.41V0H339.167V31.4019H335.41V17.0112H307.858V31.4019H304.101V0H307.858V13.7401ZM350.438 0L364.216 15.3737L377.988 0H383L366.093 18.321V31.4019H362.335V18.321L345.427 0H350.438ZM197.651 20.9355H217.689L207.667 2.6157L197.651 20.9355Z" fill="white"/>

</g></symbol><symbol id="shopping-cart" viewBox="0 0 20 20"><g fill="none">
<path d="M7.49984 18.3337C7.96007 18.3337 8.33317 17.9606 8.33317 17.5003C8.33317 17.0401 7.96007 16.667 7.49984 16.667C7.0396 16.667 6.6665 17.0401 6.6665 17.5003C6.6665 17.9606 7.0396 18.3337 7.49984 18.3337Z" stroke="white" stroke-linecap="round" stroke-linejoin="round"/>
<path d="M16.6668 18.3337C17.1271 18.3337 17.5002 17.9606 17.5002 17.5003C17.5002 17.0401 17.1271 16.667 16.6668 16.667C16.2066 16.667 15.8335 17.0401 15.8335 17.5003C15.8335 17.9606 16.2066 18.3337 16.6668 18.3337Z" stroke="white" stroke-linecap="round" stroke-linejoin="round"/>
<path d="M0.833496 0.833008H4.16683L6.40016 11.9913C6.47637 12.375 6.68509 12.7196 6.98978 12.9649C7.29448 13.2102 7.67574 13.3405 8.06683 13.333H16.1668C16.5579 13.3405 16.9392 13.2102 17.2439 12.9649C17.5486 12.7196 17.7573 12.375 17.8335 11.9913L19.1668 4.99967H5.00016" stroke="white" stroke-linecap="round" stroke-linejoin="round"/>
</g></symbol></svg>